{
  "asset": {
    "version": "2.0",
    "generator": "THREE.GLTFExporter"
  },
  "scenes": [
    {
      "nodes": [
        0
      ]
    }
  ],
  "scene": 0,
  "nodes": [
    {
      "children": [
        6
      ],
      "matrix": [
        0.01,
        0,
        0,
        0,
        0,
        0.01,
        0,
        0,
        0,
        0,
        0.01,
        0,
        0,
        0,
        0,
        1
      ]
    },
    {
      "matrix": [
        1,
        0,
        0,
        0,
        0,
        1,
        0,
        0,
        0,
        0,
        1,
        0,
        -0.8836135864257812,
        -10.625839233398409,
        0,
        1
      ],
      "name": "Cube",
      "mesh": 0
    },
    {
      "name": "Cloud",
      "children": [
        1
      ]
    },
    {
      "matrix": [
        0.5883484054145521,
        0.39223227027636803,
        -0.7071067811865475,
        0,
        -0.554700196225229,
        0.8320502943378437,
        0,
        0,
        0.588348405414552,
        0.392232270276368,
        0.7071067811865476,
        0,
        0,
        0,
        0,
        1
      ],
      "name": "Directional Light",
      "extensions": {
        "KHR_lights_punctual": {
          "light": 0
        }
      }
    },
    {
      "matrix": [
        1,
        0,
        0,
        0,
        0,
        1,
        -6.123233995736766e-17,
        0,
        0,
        6.123233995736766e-17,
        1,
        0,
        0,
        6.123233995736766e-14,
        1000,
        1
      ],
      "camera": 0
    },
    {
      "matrix": [
        1,
        0,
        0,
        0,
        0,
        1,
        0,
        0,
        0,
        0,
        1,
        0,
        0,
        1,
        0,
        1
      ],
      "name": "Default Ambient Light"
    },
    {
      "name": "Scene",
      "children": [
        2,
        3,
        4,
        5
      ]
    }
  ],
  "bufferViews": [
    {
      "buffer": 0,
      "byteOffset": 0,
      "byteLength": 55296,
      "target": 34962,
      "byteStride": 12
    },
    {
      "buffer": 0,
      "byteOffset": 55296,
      "byteLength": 55296,
      "target": 34962,
      "byteStride": 12
    },
    {
      "buffer": 0,
      "byteOffset": 110592,
      "byteLength": 27648,
      "target": 34963
    }
  ],
  "buffers": [
    {
      "byteLength": 138240,
      "uri": "data:application/octet-stream;base64,"
    }
  ],
  "accessors": [
    {
      "bufferView": 0,
      "componentType": 5126,
      "count": 4608,
      "max": [
        88.36181640625,
        64.51117706298828,
        46.41278076171875
      ],
      "min": [
        -86.63941192626953,
        -41.28744888305664,
        -46.41278076171875
      ],
      "type": "VEC3"
    },
    {
      "bufferView": 1,
      "componentType": 5126,
      "count": 4608,
      "max": [
        0.9987890720367432,
        1,
        0.9991678595542908
      ],
      "min": [
        -0.9986569881439209,
        -1,
        -0.9991678595542908
      ],
      "type": "VEC3"
    },
    {
      "bufferView": 2,
      "componentType": 5125,
      "count": 6912,
      "max": [
        4607
      ],
      "min": [
        0
      ],
      "type": "SCALAR"
    }
  ],
  "meshes": [
    {
      "primitives": [
        {
          "mode": 4,
          "attributes": {
            "POSITION": 0,
            "NORMAL": 1
          },
          "extras": {
            "type": "SubdivGeometry",
            "parameters": {
              "width": 183.14273071289062,
              "height": 110.59837341308594,
              "depth": 108.83560180664062
            }
          },
          "indices": 2
        }
      ]
    }
  ],
  "extensions": {
    "KHR_lights_punctual": {
      "lights": [
        {
          "name": "Directional Light",
          "color": [
            1,
            1,
            1
          ],
          "intensity": 0.7,
          "type": "directional"
        }
      ]
    }
  },
  "cameras": [
    {
      "type": "orthographic",
      "orthographic": {
        "xmag": 8.64,
        "ymag": 4.815,
        "zfar": 100000,
        "znear": 0
      }
    }
  ],
  "extensionsUsed": [
    "KHR_lights_punctual"
  ]
}