{
    "asset" : {
        "generator" : "Khronos glTF Blender I/O v3.4.50",
        "version" : "2.0"
    },
    "scene" : 0,
    "scenes" : [
        {
            "name" : "Scene",
            "nodes" : [
                24
            ]
        }
    ],
    "nodes" : [
        {
            "mesh" : 0,
            "name" : "Cube"
        },
        {
            "mesh" : 1,
            "name" : "Sleeve"
        },
        {
            "mesh" : 2,
            "name" : "Sleeve_2"
        },
        {
            "name" : "Bone.008",
            "rotation" : [
                3.064591691526175e-09,
                2.2148118894449453e-09,
                0.034368570894002914,
                0.9994092583656311
            ],
            "scale" : [
                0.9999999403953552,
                0.9999998807907104,
                1
            ],
            "translation" : [
                2.384185791015625e-07,
                0.39397943019866943,
                7.105427357601002e-15
            ]
        },
        {
            "children" : [
                3
            ],
            "name" : "Bone.007",
            "rotation" : [
                -4.161218036813352e-09,
                2.658083708695358e-08,
                -0.03527599945664406,
                0.9993776679039001
            ],
            "translation" : [
                2.6645352591003757e-15,
                1.0586533546447754,
                1.0658141036401503e-14
            ]
        },
        {
            "children" : [
                4
            ],
            "name" : "Bone.002",
            "rotation" : [
                8.131515016884805e-08,
                -1.3793618336421787e-07,
                -0.4671538770198822,
                0.8841760158538818
            ],
            "translation" : [
                0,
                0.3791745901107788,
                0
            ]
        },
        {
            "name" : "Bone.011",
            "rotation" : [
                3.801046144502607e-09,
                -2.6533337305068017e-08,
                -0.012738874182105064,
                0.9999188780784607
            ],
            "translation" : [
                -2.980241831096464e-08,
                0.41239064931869507,
                -8.526512829121202e-14
            ]
        },
        {
            "children" : [
                6
            ],
            "name" : "Bone.010",
            "rotation" : [
                -5.5732378712036734e-09,
                -1.2042666419631587e-08,
                0.016539623960852623,
                0.9998632073402405
            ],
            "scale" : [
                1,
                1.0000001192092896,
                1
            ],
            "translation" : [
                5.960456306297601e-08,
                0.40384072065353394,
                2.842170943040401e-14
            ]
        },
        {
            "children" : [
                7
            ],
            "name" : "Bone.009",
            "rotation" : [
                -1.2453503117626497e-08,
                6.790764217612377e-08,
                0.0443175844848156,
                0.999017596244812
            ],
            "scale" : [
                1,
                0.9999999403953552,
                1
            ],
            "translation" : [
                2.9802279755131167e-08,
                1.2770445346832275,
                -1.4210854715202004e-14
            ]
        },
        {
            "children" : [
                8
            ],
            "name" : "Bone.003",
            "rotation" : [
                1.1406020661297589e-07,
                2.0347286078248317e-09,
                -0.21462266147136688,
                0.9766970276832581
            ],
            "translation" : [
                0,
                0.3791745901107788,
                0
            ]
        },
        {
            "name" : "Bone.014",
            "rotation" : [
                7.061580764577968e-10,
                1.4551356741776544e-07,
                -0.005841908976435661,
                0.9999829530715942
            ],
            "translation" : [
                1.8626529207921294e-09,
                0.4664500057697296,
                -7.771561172376096e-16
            ]
        },
        {
            "children" : [
                10
            ],
            "name" : "Bone.013",
            "rotation" : [
                4.862373281788734e-10,
                -1.103476989783303e-07,
                -0.005671935621649027,
                0.9999839067459106
            ],
            "scale" : [
                0.9999998807907104,
                0.9999998807907104,
                1
            ],
            "translation" : [
                -2.7940123548120255e-09,
                0.45657703280448914,
                -1.4210854715202004e-14
            ]
        },
        {
            "children" : [
                11
            ],
            "name" : "Bone.012",
            "rotation" : [
                -4.964139321828043e-09,
                -3.4687616334849736e-08,
                0.021518556401133537,
                0.9997684955596924
            ],
            "translation" : [
                -1.8626906683749667e-09,
                1.2674574851989746,
                -2.7533531010703882e-14
            ]
        },
        {
            "children" : [
                12
            ],
            "name" : "Bone.004",
            "rotation" : [
                6.947081487851392e-08,
                1.4128000103141858e-08,
                -0.00911722518503666,
                0.9999584555625916
            ],
            "translation" : [
                0,
                0.3791745901107788,
                0
            ]
        },
        {
            "name" : "Bone.017",
            "rotation" : [
                -5.081454146349529e-10,
                8.597635314799845e-08,
                0.002506800927221775,
                0.9999969601631165
            ],
            "translation" : [
                -2.9802340151263707e-08,
                0.3375205993652344,
                2.842170943040401e-14
            ]
        },
        {
            "children" : [
                14
            ],
            "name" : "Bone.016",
            "rotation" : [
                9.72905533913604e-10,
                4.15969587663767e-08,
                -0.012947081588208675,
                0.9999161958694458
            ],
            "scale" : [
                0.9999998211860657,
                0.9999998807907104,
                1
            ],
            "translation" : [
                -2.9802320611338473e-08,
                0.3381578028202057,
                3.197442310920451e-14
            ]
        },
        {
            "children" : [
                15
            ],
            "name" : "Bone.015",
            "rotation" : [
                3.316293684108018e-09,
                -6.973285593403489e-08,
                -0.03208961337804794,
                0.9994850158691406
            ],
            "translation" : [
                -5.96046660916727e-08,
                1.2403045892715454,
                7.105427357601002e-15
            ]
        },
        {
            "children" : [
                16
            ],
            "name" : "Bone.005",
            "rotation" : [
                2.6189981738866663e-08,
                -4.502682671159164e-08,
                0.1930665522813797,
                0.9811856746673584
            ],
            "translation" : [
                0,
                0.3791745901107788,
                0
            ]
        },
        {
            "name" : "Bone.020",
            "rotation" : [
                6.719598211191169e-09,
                3.772555601244676e-08,
                -0.013074541464447975,
                0.9999145269393921
            ],
            "scale" : [
                0.9999999403953552,
                0.9999999403953552,
                1
            ],
            "translation" : [
                -5.960470872423684e-08,
                0.21275866031646729,
                -4.263256414560601e-14
            ]
        },
        {
            "children" : [
                18
            ],
            "name" : "Bone.019",
            "rotation" : [
                4.087485905301946e-09,
                1.512377707513224e-07,
                -0.012578357942402363,
                0.9999209046363831
            ],
            "translation" : [
                -5.960465898624534e-08,
                0.21138280630111694,
                2.1316282072803006e-14
            ]
        },
        {
            "children" : [
                19
            ],
            "name" : "Bone.018",
            "rotation" : [
                2.0769800102016234e-08,
                -3.4922553737715134e-08,
                -0.09946611523628235,
                0.9950409531593323
            ],
            "scale" : [
                1,
                0.9999999403953552,
                1
            ],
            "translation" : [
                -1.1920930376163597e-07,
                1.1719650030136108,
                -1.4210854715202004e-14
            ]
        },
        {
            "children" : [
                20
            ],
            "name" : "Bone.006",
            "rotation" : [
                -3.483882693444684e-08,
                -2.4345235161149503e-08,
                0.39979231357574463,
                0.9166057705879211
            ],
            "scale" : [
                1,
                1.0000001192092896,
                1
            ],
            "translation" : [
                0,
                0.3791745901107788,
                0
            ]
        },
        {
            "children" : [
                5,
                9,
                13,
                17,
                21
            ],
            "name" : "Bone.001",
            "translation" : [
                0,
                1.1245269775390625,
                0
            ]
        },
        {
            "children" : [
                22
            ],
            "name" : "Bone",
            "rotation" : [
                0,
                1.1920928955078125e-07,
                0,
                1
            ],
            "translation" : [
                0,
                0.12788307666778564,
                0
            ]
        },
        {
            "children" : [
                0,
                1,
                2,
                23
            ],
            "name" : "Armature"
        }
    ],
    "materials" : [
        {
            "doubleSided" : true,
            "name" : "Skin",
            "pbrMetallicRoughness" : {
                "baseColorFactor" : [
                    0.8000000715255737,
                    0.45246651768684387,
                    0.2961333096027374,
                    1
                ],
                "metallicFactor" : 0,
                "roughnessFactor" : 0.800000011920929
            }
        },
        {
            "doubleSided" : true,
            "name" : "Sleeve",
            "pbrMetallicRoughness" : {
                "baseColorFactor" : [
                    0.1610662192106247,
                    0.08441486209630966,
                    0.8000000715255737,
                    1
                ],
                "metallicFactor" : 0,
                "roughnessFactor" : 0.5
            }
        },
        {
            "doubleSided" : true,
            "name" : "Sleeve_2",
            "pbrMetallicRoughness" : {
                "baseColorFactor" : [
                    0.19266025722026825,
                    0.0629461407661438,
                    0.8000000715255737,
                    1
                ],
                "metallicFactor" : 0,
                "roughnessFactor" : 0.5
            }
        }
    ],
    "meshes" : [
        {
            "name" : "Cube.001",
            "primitives" : [
                {
                    "attributes" : {
                        "POSITION" : 0,
                        "NORMAL" : 1
                    },
                    "indices" : 2,
                    "material" : 0
                }
            ]
        },
        {
            "name" : "Cube.003",
            "primitives" : [
                {
                    "attributes" : {
                        "POSITION" : 3,
                        "NORMAL" : 4
                    },
                    "indices" : 5,
                    "material" : 1
                }
            ]
        },
        {
            "name" : "Cube.004",
            "primitives" : [
                {
                    "attributes" : {
                        "POSITION" : 6,
                        "NORMAL" : 7
                    },
                    "indices" : 8,
                    "material" : 2
                }
            ]
        }
    ],
    "skins" : [
        {
            "inverseBindMatrices" : 9,
            "joints" : [
                23,
                22,
                5,
                4,
                3,
                9,
                8,
                7,
                6,
                13,
                12,
                11,
                10,
                17,
                16,
                15,
                14,
                21,
                20,
                19,
                18
            ],
            "name" : "Armature"
        }
    ],
    "accessors" : [
        {
            "bufferView" : 0,
            "componentType" : 5126,
            "count" : 1563,
            "max" : [
                1.5053168535232544,
                4.1320013999938965,
                0.9385556578636169
            ],
            "min" : [
                -1.0424758195877075,
                0.13592158257961273,
                -0.48287472128868103
            ],
            "type" : "VEC3"
        },
        {
            "bufferView" : 1,
            "componentType" : 5126,
            "count" : 1563,
            "type" : "VEC3"
        },
        {
            "bufferView" : 2,
            "componentType" : 5123,
            "count" : 9120,
            "type" : "SCALAR"
        },
        {
            "bufferView" : 3,
            "componentType" : 5126,
            "count" : 170,
            "max" : [
                0.58090740442276,
                0.8155999183654785,
                0.5809073448181152
            ],
            "min" : [
                -0.5809073448181152,
                0.014485426247119904,
                -0.58090740442276
            ],
            "type" : "VEC3"
        },
        {
            "bufferView" : 4,
            "componentType" : 5126,
            "count" : 170,
            "type" : "VEC3"
        },
        {
            "bufferView" : 5,
            "componentType" : 5123,
            "count" : 912,
            "type" : "SCALAR"
        },
        {
            "bufferView" : 6,
            "componentType" : 5126,
            "count" : 288,
            "max" : [
                0.8232192993164062,
                1.6035624742507935,
                0.8231948614120483
            ],
            "min" : [
                -0.8232227563858032,
                0.5379337668418884,
                -0.8231949210166931
            ],
            "type" : "VEC3"
        },
        {
            "bufferView" : 7,
            "componentType" : 5126,
            "count" : 288,
            "type" : "VEC3"
        },
        {
            "bufferView" : 8,
            "componentType" : 5123,
            "count" : 1344,
            "type" : "SCALAR"
        },
        {
            "bufferView" : 9,
            "componentType" : 5126,
            "count" : 21,
            "type" : "MAT4"
        }
    ],
    "bufferViews" : [
        {
            "buffer" : 0,
            "byteLength" : 18756,
            "byteOffset" : 0,
            "target" : 34962
        },
        {
            "buffer" : 0,
            "byteLength" : 18756,
            "byteOffset" : 18756,
            "target" : 34962
        },
        {
            "buffer" : 0,
            "byteLength" : 18240,
            "byteOffset" : 37512,
            "target" : 34963
        },
        {
            "buffer" : 0,
            "byteLength" : 2040,
            "byteOffset" : 55752,
            "target" : 34962
        },
        {
            "buffer" : 0,
            "byteLength" : 2040,
            "byteOffset" : 57792,
            "target" : 34962
        },
        {
            "buffer" : 0,
            "byteLength" : 1824,
            "byteOffset" : 59832,
            "target" : 34963
        },
        {
            "buffer" : 0,
            "byteLength" : 3456,
            "byteOffset" : 61656,
            "target" : 34962
        },
        {
            "buffer" : 0,
            "byteLength" : 3456,
            "byteOffset" : 65112,
            "target" : 34962
        },
        {
            "buffer" : 0,
            "byteLength" : 2688,
            "byteOffset" : 68568,
            "target" : 34963
        },
        {
            "buffer" : 0,
            "byteLength" : 1344,
            "byteOffset" : 71256
        }
    ],
    "buffers" : [
        {
            "byteLength" : 72600,
            "uri" : "data:application/octet-stream;base64,"
        }
    ]
}
